<svg width="19" height="19" viewBox="0 0 19 19" fill="none" xmlns="http://www.w3.org/2000/svg">
<path d="M10.3493 9.01312L12.9142 6.57958C13.0007 6.48379 13.0459 6.36057 13.0407 6.23455C13.0356 6.10853 12.9805 5.98898 12.8866 5.89981C12.7926 5.81063 12.6666 5.75839 12.5337 5.75352C12.4009 5.74865 12.2711 5.79152 12.1701 5.87355L9.60519 8.28206L7.02446 5.83349C6.9235 5.75146 6.79363 5.70859 6.6608 5.71346C6.52798 5.71833 6.40198 5.77057 6.30799 5.85975C6.214 5.94893 6.15894 6.06847 6.15381 6.19449C6.14868 6.32051 6.19386 6.44373 6.28032 6.53952L8.85578 9.01312L6.33309 11.3766C6.27785 11.4215 6.23298 11.4767 6.2013 11.5388C6.16962 11.6009 6.15182 11.6686 6.14901 11.7376C6.14621 11.8065 6.15845 11.8753 6.18499 11.9395C6.21152 12.0038 6.25176 12.0622 6.3032 12.111C6.35463 12.1598 6.41614 12.1979 6.48386 12.2231C6.55159 12.2483 6.62407 12.2599 6.69675 12.2572C6.76943 12.2546 6.84075 12.2377 6.90622 12.2076C6.9717 12.1776 7.02992 12.135 7.07723 12.0826L9.59464 9.69412L12.0962 12.0676C12.1972 12.1496 12.327 12.1925 12.4599 12.1876C12.5927 12.1827 12.7187 12.1305 12.8127 12.0413C12.9067 11.9521 12.9617 11.8326 12.9669 11.7066C12.972 11.5806 12.9268 11.4573 12.8403 11.3615L10.3493 9.01312Z" fill="white"/>
<path d="M9.4996 17.0248C7.82951 17.0248 6.19693 16.5549 4.8083 15.6746C3.41967 14.7942 2.33737 13.543 1.69825 12.0791C1.05914 10.6151 0.891918 9.00423 1.21774 7.45012C1.54355 5.89601 2.34778 4.46847 3.52871 3.34802C4.70964 2.22756 6.21424 1.46453 7.85224 1.1554C9.49024 0.846263 11.1881 1.00492 12.731 1.6113C14.274 2.21769 15.5928 3.24456 16.5206 4.56208C17.4485 5.87959 17.9437 7.42856 17.9437 9.01312C17.9437 11.1379 17.0541 13.1757 15.4705 14.6782C13.8869 16.1807 11.7391 17.0248 9.4996 17.0248ZM9.4996 2.00291C8.03828 2.00291 6.60976 2.41405 5.39471 3.18434C4.17967 3.95464 3.23265 5.04948 2.67342 6.33043C2.1142 7.61138 1.96788 9.0209 2.25297 10.3807C2.53806 11.7406 3.24176 12.9897 4.27507 13.9701C5.30839 14.9505 6.62491 15.6181 8.05816 15.8886C9.49141 16.1591 10.977 16.0203 12.3271 15.4897C13.6772 14.9591 14.8311 14.0606 15.643 12.9078C16.4549 11.755 16.8882 10.3996 16.8882 9.01312C16.8882 7.1539 16.1098 5.37082 14.7241 4.05615C13.3385 2.74148 11.4592 2.00291 9.4996 2.00291Z" fill="white"/>
</svg>
